<svg width="39" height="39" viewBox="0 0 39 39" fill="none" xmlns="http://www.w3.org/2000/svg">
<g id="Iconly/Regular/Broken/Swap">
<g id="Swap">
<path id="Swap_2" fill-rule="evenodd" clip-rule="evenodd" d="M10.6155 28.3599C10.6155 29.1075 11.2154 29.7143 11.9545 29.7143C12.6936 29.7143 13.2935 29.1075 13.2935 28.3599V9.50999L17.5586 13.8405C18.0799 14.3714 18.9262 14.3714 19.451 13.8441C19.9759 13.3168 19.9777 12.459 19.4546 11.9281L12.9025 5.27337C12.5205 4.8833 11.942 4.76953 11.4439 4.97721C10.9422 5.18669 10.6155 5.6797 10.6155 6.22869V28.3599ZM5.40171 14.2389C5.06071 14.2389 4.71793 14.1071 4.45728 13.8434C3.9324 13.3161 3.93061 12.4601 4.45371 11.9292L7.06026 9.27992C7.58336 8.74899 8.4296 8.74899 8.95448 9.27631C9.47757 9.80363 9.47936 10.6614 8.95805 11.1924L6.34971 13.8398C6.08905 14.1071 5.74449 14.2389 5.40171 14.2389ZM27.3958 34.0221C27.5601 34.0907 27.7333 34.125 27.9064 34.125C28.2564 34.125 28.5991 33.9878 28.8544 33.7259L34.4621 28.0283C34.9834 27.4974 34.9816 26.6396 34.4585 26.1123C33.9337 25.5849 33.0856 25.5868 32.5643 26.1159L29.2454 29.4911V10.6376C29.2454 9.88995 28.6473 9.28317 27.9064 9.28317C27.1673 9.28317 26.5675 9.88995 26.5675 10.6376V32.7706C26.5675 33.3196 26.8942 33.8126 27.3958 34.0221ZM23.0111 29.7172C23.2736 29.9845 23.6181 30.1163 23.9609 30.1163C24.3019 30.1163 24.6447 29.9845 24.9053 29.7208C25.4302 29.1935 25.432 28.3375 24.9107 27.8066L22.3041 25.1573C21.7793 24.6264 20.933 24.6264 20.4099 25.1537C19.885 25.681 19.8833 26.5388 20.4046 27.0697L23.0111 29.7172Z" fill="url(#paint0_linear_154_344)"/>
</g>
</g>
<defs>
<linearGradient id="paint0_linear_154_344" x1="1.67108" y1="39.1681" x2="63.1796" y2="30.6585" gradientUnits="userSpaceOnUse">
<stop stop-color="#E48E3E"/>
<stop offset="0.417796" stop-color="#B14BF4"/>
<stop offset="1" stop-color="#4D91FF"/>
</linearGradient>
</defs>
</svg>
