<svg width="37" height="37" viewBox="0 0 37 37" fill="none" xmlns="http://www.w3.org/2000/svg">
<g id="Iconly/Regular/Outline/Upload">
<g id="Upload">
<g id="Group 3">
<mask id="mask0_154_351" style="mask-type:luminance" maskUnits="userSpaceOnUse" x="3" y="13" width="31" height="22">
<g id="Clip 2">
<path fill-rule="evenodd" clip-rule="evenodd" d="M3.08398 13.5566H33.9167V34.7453H3.08398V13.5566Z" fill="white"/>
<path fill-rule="evenodd" clip-rule="evenodd" d="M3.08398 13.5566H33.9167V34.7453H3.08398V13.5566Z" stroke="white"/>
</g>
</mask>
<g mask="url(#mask0_154_351)">
<g id="Fill 1">
<path fill-rule="evenodd" clip-rule="evenodd" d="M27.08 34.7453H9.92128C6.1519 34.7453 3.08398 31.6789 3.08398 27.908V20.3924C3.08398 16.623 6.1519 13.5566 9.92128 13.5566H11.3597C11.9979 13.5566 12.5159 14.0746 12.5159 14.7129C12.5159 15.3511 11.9979 15.8691 11.3597 15.8691H9.92128C7.42532 15.8691 5.39648 17.898 5.39648 20.3924V27.908C5.39648 30.404 7.42532 32.4328 9.92128 32.4328H27.08C29.5744 32.4328 31.6048 30.404 31.6048 27.908V20.3785C31.6048 17.8918 29.5822 15.8691 27.097 15.8691H25.6432C25.0049 15.8691 24.4869 15.3511 24.4869 14.7129C24.4869 14.0746 25.0049 13.5566 25.6432 13.5566H27.097C30.8571 13.5566 33.9173 16.6168 33.9173 20.3785V27.908C33.9173 31.6789 30.8494 34.7453 27.08 34.7453Z" fill="white"/>
<path fill-rule="evenodd" clip-rule="evenodd" d="M27.08 34.7453H9.92128C6.1519 34.7453 3.08398 31.6789 3.08398 27.908V20.3924C3.08398 16.623 6.1519 13.5566 9.92128 13.5566H11.3597C11.9979 13.5566 12.5159 14.0746 12.5159 14.7129C12.5159 15.3511 11.9979 15.8691 11.3597 15.8691H9.92128C7.42532 15.8691 5.39648 17.898 5.39648 20.3924V27.908C5.39648 30.404 7.42532 32.4328 9.92128 32.4328H27.08C29.5744 32.4328 31.6048 30.404 31.6048 27.908V20.3785C31.6048 17.8918 29.5822 15.8691 27.097 15.8691H25.6432C25.0049 15.8691 24.4869 15.3511 24.4869 14.7129C24.4869 14.0746 25.0049 13.5566 25.6432 13.5566H27.097C30.8571 13.5566 33.9173 16.6168 33.9173 20.3785V27.908C33.9173 31.6789 30.8494 34.7453 27.08 34.7453Z" fill="url(#paint0_linear_154_351)"/>
</g>
</g>
</g>
<g id="Group 6">
<mask id="mask1_154_351" style="mask-type:luminance" maskUnits="userSpaceOnUse" x="17" y="3" width="3" height="21">
<g id="Clip 5">
<path fill-rule="evenodd" clip-rule="evenodd" d="M17.3438 3.08301H19.6562V23.9586H17.3438V3.08301Z" fill="white"/>
<path fill-rule="evenodd" clip-rule="evenodd" d="M17.3438 3.08301H19.6562V23.9586H17.3438V3.08301Z" stroke="white"/>
</g>
</mask>
<g mask="url(#mask1_154_351)">
<g id="Fill 4">
<path fill-rule="evenodd" clip-rule="evenodd" d="M18.5 23.9587C17.8618 23.9587 17.3438 23.4407 17.3438 22.8025V4.23926C17.3438 3.60101 17.8618 3.08301 18.5 3.08301C19.1382 3.08301 19.6562 3.60101 19.6562 4.23926V22.8025C19.6562 23.4407 19.1382 23.9587 18.5 23.9587Z" fill="white"/>
<path fill-rule="evenodd" clip-rule="evenodd" d="M18.5 23.9587C17.8618 23.9587 17.3438 23.4407 17.3438 22.8025V4.23926C17.3438 3.60101 17.8618 3.08301 18.5 3.08301C19.1382 3.08301 19.6562 3.60101 19.6562 4.23926V22.8025C19.6562 23.4407 19.1382 23.9587 18.5 23.9587Z" fill="url(#paint1_linear_154_351)"/>
</g>
</g>
</g>
<g id="Fill 7">
<path fill-rule="evenodd" clip-rule="evenodd" d="M14.0055 9.91067C13.711 9.91067 13.415 9.79813 13.1899 9.57304C12.7382 9.12288 12.7351 8.39212 13.1869 7.93887L17.6808 3.42487C18.114 2.98858 18.8849 2.98858 19.3181 3.42487L23.8136 7.93887C24.2637 8.39212 24.2622 9.12288 23.8105 9.57304C23.3572 10.0232 22.6265 10.0232 22.1763 9.56996L18.4994 5.87921L14.8241 9.56996C14.599 9.79812 14.3015 9.91067 14.0055 9.91067Z" fill="white"/>
<path fill-rule="evenodd" clip-rule="evenodd" d="M14.0055 9.91067C13.711 9.91067 13.415 9.79813 13.1899 9.57304C12.7382 9.12288 12.7351 8.39212 13.1869 7.93887L17.6808 3.42487C18.114 2.98858 18.8849 2.98858 19.3181 3.42487L23.8136 7.93887C24.2637 8.39212 24.2622 9.12288 23.8105 9.57304C23.3572 10.0232 22.6265 10.0232 22.1763 9.56996L18.4994 5.87921L14.8241 9.56996C14.599 9.79812 14.3015 9.91067 14.0055 9.91067Z" fill="url(#paint2_linear_154_351)"/>
</g>
</g>
</g>
<defs>
<linearGradient id="paint0_linear_154_351" x1="0.689162" y1="38.3985" x2="51.395" y2="35.98" gradientUnits="userSpaceOnUse">
<stop stop-color="#E48E3E"/>
<stop offset="0.417796" stop-color="#B14BF4"/>
<stop offset="1" stop-color="#4D91FF"/>
</linearGradient>
<linearGradient id="paint1_linear_154_351" x1="17.1641" y1="27.558" x2="20.9757" y2="27.5441" gradientUnits="userSpaceOnUse">
<stop stop-color="#E48E3E"/>
<stop offset="0.417796" stop-color="#B14BF4"/>
<stop offset="1" stop-color="#4D91FF"/>
</linearGradient>
<linearGradient id="paint2_linear_154_351" x1="11.9719" y1="11.0853" x2="30.5433" y2="10.0756" gradientUnits="userSpaceOnUse">
<stop stop-color="#E48E3E"/>
<stop offset="0.417796" stop-color="#B14BF4"/>
<stop offset="1" stop-color="#4D91FF"/>
</linearGradient>
</defs>
</svg>
