<svg width="656" height="228" viewBox="0 0 656 228" fill="none" xmlns="http://www.w3.org/2000/svg">
<path d="M0 177.864V10.7435H23.4114L87.4345 172.134L151.458 10.7435H174.63V177.864H153.13V20.7707L90.3012 177.864H84.3289L21.5003 20.7707V177.864H0Z" fill="white" fill-opacity="0.01"/>
<path d="M239.023 180.729C227.556 180.729 218.558 178.023 212.028 172.612C205.499 167.2 202.234 159.799 202.234 150.408C202.234 141.177 205.26 134.015 211.312 128.921C217.523 123.828 224.929 120.327 233.529 118.417C242.129 116.348 251.923 114.915 262.913 114.119C272.468 113.483 279.794 112.369 284.891 110.777C290.146 109.185 292.774 106.32 292.774 102.182C292.774 92.9508 289.668 85.6293 283.457 80.2178C277.246 74.6471 269.442 71.8618 260.046 71.8618C250.172 71.8618 242.049 74.6471 235.679 80.2178C229.308 85.6293 225.406 93.1895 223.973 102.898H206.056C207.012 93.1895 209.878 84.8335 214.656 77.8304C219.593 70.6681 225.964 65.2566 233.768 61.5958C241.731 57.9351 250.57 56.1047 260.285 56.1047C270.159 56.1047 278.839 58.0147 286.324 61.8346C293.969 65.6545 299.861 71.2251 304.002 78.5466C308.302 85.8681 310.452 94.3833 310.452 104.092V160.913H326.936V177.864H293.013V138.949C289.509 151.363 282.979 161.47 273.424 169.269C263.868 176.909 252.401 180.729 239.023 180.729ZM247.146 165.449C255.746 165.449 263.47 163.46 270.318 159.481C277.326 155.342 282.82 149.931 286.802 143.246C290.783 136.402 292.774 129.081 292.774 121.282L293.013 111.732C290.783 113.642 287.678 115.074 283.696 116.029C279.874 116.984 274.698 117.701 268.168 118.178C267.85 118.178 267.451 118.258 266.974 118.417C266.496 118.417 266.098 118.417 265.779 118.417C250.649 119.69 239.501 122.396 232.334 126.534C225.168 130.513 221.584 136.482 221.584 144.44C221.584 151.284 223.893 156.536 228.512 160.197C233.131 163.698 239.342 165.449 247.146 165.449Z" fill="white" fill-opacity="0.01"/>
<path d="M407.028 228C393.013 228 380.83 226.488 370.478 223.464C360.285 220.44 352.402 216.142 346.828 210.572C341.413 205.001 338.705 198.316 338.705 190.517C338.705 181.763 342.448 174.203 349.933 167.837C357.578 161.311 369.124 157.014 384.573 154.945C366.098 153.194 352.083 150.09 342.528 145.634C333.131 141.018 328.433 134.094 328.433 124.863C328.433 121.043 329.866 117.701 332.733 114.836C335.759 111.971 339.422 110.538 343.722 110.538C344.518 110.538 345.315 110.618 346.111 110.777C346.907 110.777 347.704 110.857 348.5 111.016C349.455 111.175 350.491 111.414 351.605 111.732C352.72 112.05 353.755 112.448 354.711 112.926C349.296 106.877 346.589 100.511 346.589 93.8262C346.589 83.4806 351.128 75.045 360.206 68.5194C369.284 61.8346 382.104 57.8555 398.667 56.5822V27.4555H418.017V56.5822C429.166 57.2189 438.881 59.2084 447.162 62.5508C455.444 65.734 461.735 70.111 466.035 75.6817C470.494 81.2524 472.724 87.778 472.724 95.2586C472.724 103.058 470.176 109.902 465.079 115.791C459.983 121.52 452.657 125.977 443.101 129.16C433.546 132.184 422.397 133.696 409.656 133.696C401.534 133.696 394.526 133.139 388.634 132.025C382.741 130.752 377.963 129.319 374.3 127.728C370.796 126.136 366.815 124.147 362.356 121.759C358.533 119.531 355.268 117.939 352.561 116.984C349.854 116.029 346.828 115.552 343.483 115.552C340.457 115.552 337.989 116.507 336.077 118.417C334.166 120.168 333.211 122.316 333.211 124.863C333.211 130.434 335.759 135.049 340.855 138.71C345.952 142.371 352.8 145.156 361.4 147.066C370.159 148.976 380.432 150.329 392.217 151.125C394.925 151.443 397.632 151.682 400.339 151.841C403.047 151.841 405.754 151.841 408.462 151.841C429.644 152.318 446.207 155.502 458.151 161.391C470.096 167.12 476.068 176.272 476.068 188.846C476.068 196.804 473.281 203.728 467.707 209.617C462.133 215.506 454.09 220.042 443.579 223.225C433.227 226.408 421.043 228 407.028 228ZM407.267 213.198C416.982 213.198 425.582 212.004 433.068 209.617C440.553 207.388 446.286 204.126 450.268 199.828C454.249 195.69 456.24 190.836 456.24 185.265C456.24 176.193 452.02 169.19 443.579 164.255C435.138 159.321 423.034 156.854 407.267 156.854C397.393 156.854 388.793 158.048 381.467 160.436C374.141 162.664 368.408 165.927 364.267 170.224C360.285 174.521 358.294 179.535 358.294 185.265C358.294 190.836 360.285 195.69 364.267 199.828C368.408 204.126 374.141 207.388 381.467 209.617C388.793 212.004 397.393 213.198 407.267 213.198ZM409.656 128.921C423.034 128.921 433.705 126.295 441.668 121.043C449.79 115.631 453.851 108.469 453.851 99.556C453.851 90.6429 449.79 83.4806 441.668 78.0691C433.705 72.4984 423.034 69.7131 409.656 69.7131C396.438 69.7131 385.767 72.4984 377.645 78.0691C369.682 83.4806 365.7 90.6429 365.7 99.556C365.7 108.469 369.602 115.631 377.406 121.043C385.369 126.295 396.119 128.921 409.656 128.921Z" fill="white" fill-opacity="0.01"/>
<path d="M492.536 177.864V58.4922H511.647V177.864H492.536ZM500.897 41.5414L489.908 0H514.514L503.286 41.5414H500.897Z" fill="white" fill-opacity="0.01"/>
<path d="M596.755 180.251C584.81 180.251 574.06 177.546 564.504 172.134C554.949 166.723 547.463 159.321 542.048 149.931C536.634 140.54 533.926 129.956 533.926 118.178C533.926 106.4 536.634 95.8157 542.048 86.4251C547.463 77.0346 554.949 69.6335 564.504 64.222C574.06 58.8105 584.81 56.1047 596.755 56.1047C607.266 56.1047 616.742 58.0942 625.183 62.0733C633.783 66.0524 640.711 71.7026 645.967 79.0241C651.222 86.3456 654.567 94.7016 656 104.092H637.128C634.898 94.7016 630.2 87.3005 623.033 81.889C615.866 76.3183 607.107 73.533 596.755 73.533C588.473 73.533 580.988 75.5225 574.299 79.5016C567.61 83.3215 562.354 88.6534 558.532 95.4974C554.71 102.341 552.799 109.902 552.799 118.178C552.799 126.454 554.71 134.015 558.532 140.859C562.354 147.703 567.61 153.114 574.299 157.093C580.988 160.913 588.473 162.823 596.755 162.823C607.107 162.823 615.866 160.038 623.033 154.467C630.2 148.896 634.898 141.416 637.128 132.025H656C654.567 141.416 651.222 149.772 645.967 157.093C640.711 164.415 633.783 170.145 625.183 174.283C616.742 178.262 607.266 180.251 596.755 180.251Z" fill="white" fill-opacity="0.01"/>
</svg>
