<svg width="48" height="48" viewBox="0 0 48 48" fill="none" xmlns="http://www.w3.org/2000/svg">
<path d="M43.3907 22.0001C43.3898 19.7525 42.7376 17.5533 41.5131 15.6686C40.2885 13.7838 38.5441 12.2943 36.4907 11.3801C35.7638 9.75184 34.6719 8.31269 33.2995 7.17412C31.9271 6.03554 30.3111 5.22809 28.5766 4.81428C26.8421 4.40047 25.0356 4.39141 23.297 4.7878C21.5585 5.18419 19.9344 5.97539 18.5507 7.10014H18.2507C16.6257 7.10168 15.019 7.44374 13.5343 8.10429C12.0496 8.76483 10.7198 9.72919 9.63062 10.9352C8.54146 12.1412 7.71712 13.562 7.21075 15.1062C6.70438 16.6503 6.52723 18.2834 6.69071 19.9001C5.71193 21.308 5.05713 22.9151 4.77337 24.6062C4.48961 26.2972 4.58393 28.03 5.04954 29.6803C5.51516 31.3305 6.34052 32.8571 7.46632 34.1504C8.59212 35.4437 9.99041 36.4715 11.5607 37.1601C12.336 38.6808 13.4373 40.0116 14.7861 41.0576C16.1348 42.1036 17.6978 42.8391 19.3635 43.2116C21.0292 43.5841 22.7566 43.5844 24.4225 43.2125C26.0883 42.8406 27.6516 42.1057 29.0007 41.0601H29.8607C32.9417 41.0655 35.8989 39.848 38.0832 37.675C40.2674 35.502 41.5001 32.5511 41.5107 29.4701C41.5107 29.1201 41.5107 28.7801 41.4507 28.4701C42.7299 26.556 43.4057 24.3023 43.3907 22.0001Z" stroke="url(#paint0_linear_154_193)" stroke-linecap="round" stroke-linejoin="round"/>
<path d="M6.68945 19.8998C7.63945 25.2298 9.44945 26.7598 10.8795 28.1998C12.3095 29.6398 16.8295 33.4498 17.8795 34.9898M41.4495 28.4398C40.4495 23.1098 38.6895 21.5698 37.2595 20.1398C35.8295 18.7098 31.3095 14.8798 30.2595 13.3398" stroke="black" stroke-linecap="round" stroke-linejoin="round"/>
<path d="M6.68945 19.8998C7.63945 25.2298 9.44945 26.7598 10.8795 28.1998C12.3095 29.6398 16.8295 33.4498 17.8795 34.9898M41.4495 28.4398C40.4495 23.1098 38.6895 21.5698 37.2595 20.1398C35.8295 18.7098 31.3095 14.8798 30.2595 13.3398" stroke="url(#paint1_linear_154_193)" stroke-linecap="round" stroke-linejoin="round"/>
<path d="M28.9996 41.0596C33.1396 37.5596 33.5696 35.2296 34.0896 33.2696C34.6096 31.3096 34.9796 27.7996 36.4696 23.8096C38.0334 19.8207 38.0334 15.3885 36.4696 11.3996M18.5496 7.09961C14.4096 10.5996 14.4596 13.3296 13.9396 15.2896C13.3696 18.495 12.5743 21.6561 11.5596 24.7496C9.99576 28.7385 9.99576 33.1707 11.5596 37.1596" stroke="black" stroke-linecap="round" stroke-linejoin="round"/>
<path d="M28.9996 41.0596C33.1396 37.5596 33.5696 35.2296 34.0896 33.2696C34.6096 31.3096 34.9796 27.7996 36.4696 23.8096C38.0334 19.8207 38.0334 15.3885 36.4696 11.3996M18.5496 7.09961C14.4096 10.5996 14.4596 13.3296 13.9396 15.2896C13.3696 18.495 12.5743 21.6561 11.5596 24.7496C9.99576 28.7385 9.99576 33.1707 11.5596 37.1596" stroke="url(#paint2_linear_154_193)" stroke-linecap="round" stroke-linejoin="round"/>
<path d="M38.4598 31.2396C33.7498 34.5796 31.0298 33.9996 27.4598 35.2396C25.3398 35.9496 24.0398 37.4296 17.5198 37.8596C13.2398 38.1496 11.5998 37.1996 11.5998 37.1996M9.58984 17.3196C14.2998 13.9896 17.0198 14.5596 20.5898 13.3196C22.7098 12.6096 24.0098 11.1296 30.5298 10.6996C34.8098 10.4196 36.4498 11.3596 36.4498 11.3596" stroke="black" stroke-linecap="round" stroke-linejoin="round"/>
<path d="M38.4598 31.2396C33.7498 34.5796 31.0298 33.9996 27.4598 35.2396C25.3398 35.9496 24.0398 37.4296 17.5198 37.8596C13.2398 38.1496 11.5998 37.1996 11.5998 37.1996M9.58984 17.3196C14.2998 13.9896 17.0198 14.5596 20.5898 13.3196C22.7098 12.6096 24.0098 11.1296 30.5298 10.6996C34.8098 10.4196 36.4498 11.3596 36.4498 11.3596" stroke="url(#paint3_linear_154_193)" stroke-linecap="round" stroke-linejoin="round"/>
<path d="M27.1808 11.1201C25.6108 9.46012 22.1308 7.12012 18.5508 7.12012M20.8008 37.4501C22.9564 39.6802 25.9003 40.9763 29.0008 41.0601" stroke="black" stroke-linecap="round" stroke-linejoin="round"/>
<path d="M27.1808 11.1201C25.6108 9.46012 22.1308 7.12012 18.5508 7.12012M20.8008 37.4501C22.9564 39.6802 25.9003 40.9763 29.0008 41.0601" stroke="url(#paint4_linear_154_193)" stroke-linecap="round" stroke-linejoin="round"/>
<defs>
<linearGradient id="paint0_linear_154_193" x1="1.60142" y1="50.2143" x2="65.449" y2="48.1332" gradientUnits="userSpaceOnUse">
<stop stop-color="#E48E3E"/>
<stop offset="0.417796" stop-color="#B14BF4"/>
<stop offset="1" stop-color="#4D91FF"/>
</linearGradient>
<linearGradient id="paint1_linear_154_193" x1="3.98965" y1="38.7226" x2="61.1247" y2="35.7158" gradientUnits="userSpaceOnUse">
<stop stop-color="#E48E3E"/>
<stop offset="0.417796" stop-color="#B14BF4"/>
<stop offset="1" stop-color="#4D91FF"/>
</linearGradient>
<linearGradient id="paint2_linear_154_193" x1="8.26977" y1="46.9148" x2="53.1631" y2="45.7338" gradientUnits="userSpaceOnUse">
<stop stop-color="#E48E3E"/>
<stop offset="0.417796" stop-color="#B14BF4"/>
<stop offset="1" stop-color="#4D91FF"/>
</linearGradient>
<linearGradient id="paint3_linear_154_193" x1="7.34751" y1="42.6158" x2="54.8754" y2="40.9664" gradientUnits="userSpaceOnUse">
<stop stop-color="#E48E3E"/>
<stop offset="0.417796" stop-color="#B14BF4"/>
<stop offset="1" stop-color="#4D91FF"/>
</linearGradient>
<linearGradient id="paint4_linear_154_193" x1="17.7391" y1="46.9118" x2="34.9616" y2="46.738" gradientUnits="userSpaceOnUse">
<stop stop-color="#E48E3E"/>
<stop offset="0.417796" stop-color="#B14BF4"/>
<stop offset="1" stop-color="#4D91FF"/>
</linearGradient>
</defs>
</svg>
