<svg width="48" height="48" viewBox="0 0 48 48" fill="none" xmlns="http://www.w3.org/2000/svg">
<g id="arcticons:ai-chat">
<g id="Vector">
<path d="M31.37 9.33V11.218L28.713 12.746V9.55C28.7141 8.39135 28.255 7.2797 27.4366 6.45948C26.6183 5.63925 25.5077 5.17759 24.349 5.176H23.66C23.0857 5.176 22.5169 5.28914 21.9863 5.50897C21.4557 5.7288 20.9736 6.051 20.5675 6.45718C20.1614 6.86335 19.8393 7.34555 19.6196 7.87622C19.3999 8.40689 19.2869 8.97565 19.287 9.55V20.505C19.287 21.015 19.017 21.484 18.567 21.743L14.654 24L11.978 22.452L15.513 20.415C15.8525 20.2181 16.1344 19.9356 16.3305 19.5957C16.5267 19.2558 16.6303 18.8704 16.631 18.478V9.34C16.6321 7.52624 17.3531 5.78708 18.6356 4.50456C19.9181 3.22204 21.6573 2.50106 23.471 2.5H24.541C25.4381 2.49961 26.3264 2.676 27.1552 3.0191C27.9841 3.3622 28.7371 3.86528 29.3714 4.49958C30.0057 5.13388 30.5088 5.88697 30.8519 6.71581C31.195 7.54464 31.3704 8.43296 31.37 9.33ZM28.713 32.219V35.254L25.118 33.177C24.7765 32.9857 24.3915 32.8853 24 32.8853C23.6085 32.8853 23.2236 32.9857 22.882 33.177L19.287 35.254L16.63 36.782L14.973 37.741C13.4035 38.647 11.5385 38.893 9.78778 38.4248C8.03705 37.9566 6.54377 36.8125 5.63603 35.244L5.36603 34.774L5.09603 34.316C4.64676 33.5385 4.3552 32.6801 4.23806 31.7898C4.12091 30.8995 4.18047 29.9949 4.41333 29.1276C4.64618 28.2604 5.04776 27.4476 5.59509 26.7357C6.14241 26.0238 6.82474 25.4269 7.60303 24.979L9.30003 23.999L11.977 25.548L9.08103 27.216C8.58304 27.5021 8.14635 27.8837 7.79595 28.3387C7.44555 28.7938 7.18832 29.3135 7.03897 29.8681C6.88962 30.4227 6.85108 31.0013 6.92556 31.5708C7.00004 32.1403 7.18608 32.6895 7.47303 33.187L7.81303 33.777C8.10011 34.2754 8.48258 34.7123 8.93857 35.0627C9.39456 35.4132 9.91515 35.6705 10.4706 35.8197C11.026 35.9689 11.6054 36.0073 12.1756 35.9325C12.7459 35.8577 13.2958 35.6714 13.794 35.384L16.63 33.746L19.287 32.208L23.281 29.902L23.291 29.912C23.731 29.652 24.27 29.652 24.709 29.912H24.719L28.713 32.219Z" stroke="black" stroke-linecap="round" stroke-linejoin="round"/>
<path d="M31.37 9.33V11.218L28.713 12.746V9.55C28.7141 8.39135 28.255 7.2797 27.4366 6.45948C26.6183 5.63925 25.5077 5.17759 24.349 5.176H23.66C23.0857 5.176 22.5169 5.28914 21.9863 5.50897C21.4557 5.7288 20.9736 6.051 20.5675 6.45718C20.1614 6.86335 19.8393 7.34555 19.6196 7.87622C19.3999 8.40689 19.2869 8.97565 19.287 9.55V20.505C19.287 21.015 19.017 21.484 18.567 21.743L14.654 24L11.978 22.452L15.513 20.415C15.8525 20.2181 16.1344 19.9356 16.3305 19.5957C16.5267 19.2558 16.6303 18.8704 16.631 18.478V9.34C16.6321 7.52624 17.3531 5.78708 18.6356 4.50456C19.9181 3.22204 21.6573 2.50106 23.471 2.5H24.541C25.4381 2.49961 26.3264 2.676 27.1552 3.0191C27.9841 3.3622 28.7371 3.86528 29.3714 4.49958C30.0057 5.13388 30.5088 5.88697 30.8519 6.71581C31.195 7.54464 31.3704 8.43296 31.37 9.33ZM28.713 32.219V35.254L25.118 33.177C24.7765 32.9857 24.3915 32.8853 24 32.8853C23.6085 32.8853 23.2236 32.9857 22.882 33.177L19.287 35.254L16.63 36.782L14.973 37.741C13.4035 38.647 11.5385 38.893 9.78778 38.4248C8.03705 37.9566 6.54377 36.8125 5.63603 35.244L5.36603 34.774L5.09603 34.316C4.64676 33.5385 4.3552 32.6801 4.23806 31.7898C4.12091 30.8995 4.18047 29.9949 4.41333 29.1276C4.64618 28.2604 5.04776 27.4476 5.59509 26.7357C6.14241 26.0238 6.82474 25.4269 7.60303 24.979L9.30003 23.999L11.977 25.548L9.08103 27.216C8.58304 27.5021 8.14635 27.8837 7.79595 28.3387C7.44555 28.7938 7.18832 29.3135 7.03897 29.8681C6.88962 30.4227 6.85108 31.0013 6.92556 31.5708C7.00004 32.1403 7.18608 32.6895 7.47303 33.187L7.81303 33.777C8.10011 34.2754 8.48258 34.7123 8.93857 35.0627C9.39456 35.4132 9.91515 35.6705 10.4706 35.8197C11.026 35.9689 11.6054 36.0073 12.1756 35.9325C12.7459 35.8577 13.2958 35.6714 13.794 35.384L16.63 33.746L19.287 32.208L23.281 29.902L23.291 29.912C23.731 29.652 24.27 29.652 24.709 29.912H24.719L28.713 32.219Z" stroke="url(#paint0_linear_154_182)" stroke-linecap="round" stroke-linejoin="round"/>
</g>
<path id="Vector_2" d="M16.6281 29.5218V33.7458L13.7921 35.3838C13.2938 35.6711 12.7438 35.8574 12.1735 35.9321C11.6033 36.0068 11.0238 35.9684 10.4684 35.819C9.91296 35.6697 9.3924 35.4124 8.93644 35.0618C8.48049 34.7112 8.09808 34.2742 7.81108 33.7758L7.47108 33.1868C7.18413 32.6893 6.99809 32.14 6.92361 31.5705C6.84913 31.001 6.88767 30.4225 7.03702 29.8679C7.18637 29.3133 7.4436 28.7936 7.794 28.3385C8.1444 27.8834 8.58109 27.5019 9.07908 27.2158L11.9751 25.5478L15.5101 27.5948C15.8492 27.7895 16.1311 28.0702 16.3274 28.4084C16.5236 28.7467 16.6273 29.1307 16.6281 29.5218M40.5151 33.1968L40.1751 33.7968C39.592 34.7972 38.6363 35.5258 37.5173 35.8232C36.3982 36.1206 35.2069 35.9626 34.2041 35.3838L31.3681 33.7458V29.5218C31.3681 28.7228 31.7981 27.9938 32.4861 27.5948L36.0211 25.5478L38.9171 27.2158C39.415 27.5033 39.8513 27.8862 40.2011 28.3425C40.5509 28.7988 40.8074 29.3196 40.9558 29.8751C41.1042 30.4305 41.1417 31.0098 41.0661 31.5798C40.9904 32.1498 40.8032 32.6992 40.5151 33.1968M22.8801 14.8228L19.2851 12.7458V9.54978C19.2849 8.97543 19.398 8.40667 19.6177 7.876C19.8374 7.34533 20.1595 6.86313 20.5655 6.45696C20.9716 6.05078 21.4538 5.72858 21.9844 5.50875C22.515 5.28893 23.0837 5.17578 23.6581 5.17578H24.3481C25.5066 5.17764 26.6169 5.63941 27.435 6.45961C28.2532 7.27981 28.7121 8.3913 28.7111 9.54978V12.7458L25.1161 14.8228C24.4271 15.2228 23.5691 15.2228 22.8791 14.8228H22.8801ZM33.3451 23.9998L29.4301 26.2568C28.9811 26.5168 28.7111 26.9858 28.7111 27.4948V32.2188L24.7171 29.9118H24.7071C24.2671 29.6518 23.7281 29.6518 23.2891 29.9118L23.2791 29.9018L19.2851 32.2088V27.4948C19.2851 26.9848 19.0151 26.5168 18.5651 26.2568L14.6521 23.9998L18.5671 21.7428C19.0171 21.4828 19.2861 21.0138 19.2861 20.5048V15.7898L23.2801 18.0968L23.2901 18.0868C23.7301 18.3468 24.2691 18.3468 24.7081 18.0868L24.7181 18.0968L28.7121 15.7898V20.5038C28.7121 21.0138 28.9821 21.4828 29.4321 21.7418L33.3451 23.9998Z" stroke="black" stroke-linecap="round" stroke-linejoin="round"/>
<g id="Vector_3">
<path d="M16.6281 29.5218V33.7458L13.7921 35.3838C13.2938 35.6711 12.7438 35.8574 12.1735 35.9321C11.6033 36.0068 11.0238 35.9684 10.4684 35.819C9.91296 35.6697 9.3924 35.4124 8.93644 35.0618C8.48049 34.7112 8.09808 34.2742 7.81108 33.7758L7.47108 33.1868C7.18413 32.6893 6.99809 32.14 6.92361 31.5705C6.84913 31.001 6.88767 30.4225 7.03702 29.8679C7.18637 29.3133 7.4436 28.7936 7.794 28.3385C8.1444 27.8834 8.58109 27.5019 9.07908 27.2158L11.9751 25.5478L15.5101 27.5948C15.8492 27.7895 16.1311 28.0702 16.3274 28.4084C16.5236 28.7467 16.6273 29.1307 16.6281 29.5218M40.5151 33.1968L40.1751 33.7968C39.592 34.7972 38.6363 35.5258 37.5173 35.8232C36.3982 36.1206 35.2069 35.9626 34.2041 35.3838L31.3681 33.7458V29.5218C31.3681 28.7228 31.7981 27.9938 32.4861 27.5948L36.0211 25.5478L38.9171 27.2158C39.415 27.5033 39.8513 27.8862 40.2011 28.3425C40.5509 28.7988 40.8074 29.3196 40.9558 29.8751C41.1042 30.4305 41.1417 31.0098 41.0661 31.5798C40.9904 32.1498 40.8032 32.6992 40.5151 33.1968M22.8801 14.8228L19.2851 12.7458V9.54978C19.2849 8.97543 19.398 8.40667 19.6177 7.876C19.8374 7.34533 20.1595 6.86313 20.5655 6.45696C20.9716 6.05078 21.4538 5.72858 21.9844 5.50875C22.515 5.28893 23.0837 5.17578 23.6581 5.17578H24.3481C25.5066 5.17764 26.6169 5.63941 27.435 6.45961C28.2532 7.27981 28.7121 8.3913 28.7111 9.54978V12.7458L25.1161 14.8228C24.4271 15.2228 23.5691 15.2228 22.8791 14.8228H22.8801ZM33.3451 23.9998L29.4301 26.2568C28.9811 26.5168 28.7111 26.9858 28.7111 27.4948V32.2188L24.7171 29.9118H24.7071C24.2671 29.6518 23.7281 29.6518 23.2891 29.9118L23.2791 29.9018L19.2851 32.2088V27.4948C19.2851 26.9848 19.0151 26.5168 18.5651 26.2568L14.6521 23.9998L18.5671 21.7428C19.0171 21.4828 19.2861 21.0138 19.2861 20.5048V15.7898L23.2801 18.0968L23.2901 18.0868C23.7301 18.3468 24.2691 18.3468 24.7081 18.0868L24.7181 18.0968L28.7121 15.7898V20.5038C28.7121 21.0138 28.9821 21.4828 29.4321 21.7418L33.3451 23.9998Z" stroke="black" stroke-linecap="round" stroke-linejoin="round"/>
<path d="M16.6281 29.5218V33.7458L13.7921 35.3838C13.2938 35.6711 12.7438 35.8574 12.1735 35.9321C11.6033 36.0068 11.0238 35.9684 10.4684 35.819C9.91296 35.6697 9.3924 35.4124 8.93644 35.0618C8.48049 34.7112 8.09808 34.2742 7.81108 33.7758L7.47108 33.1868C7.18413 32.6893 6.99809 32.14 6.92361 31.5705C6.84913 31.001 6.88767 30.4225 7.03702 29.8679C7.18637 29.3133 7.4436 28.7936 7.794 28.3385C8.1444 27.8834 8.58109 27.5019 9.07908 27.2158L11.9751 25.5478L15.5101 27.5948C15.8492 27.7895 16.1311 28.0702 16.3274 28.4084C16.5236 28.7467 16.6273 29.1307 16.6281 29.5218M40.5151 33.1968L40.1751 33.7968C39.592 34.7972 38.6363 35.5258 37.5173 35.8232C36.3982 36.1206 35.2069 35.9626 34.2041 35.3838L31.3681 33.7458V29.5218C31.3681 28.7228 31.7981 27.9938 32.4861 27.5948L36.0211 25.5478L38.9171 27.2158C39.415 27.5033 39.8513 27.8862 40.2011 28.3425C40.5509 28.7988 40.8074 29.3196 40.9558 29.8751C41.1042 30.4305 41.1417 31.0098 41.0661 31.5798C40.9904 32.1498 40.8032 32.6992 40.5151 33.1968M22.8801 14.8228L19.2851 12.7458V9.54978C19.2849 8.97543 19.398 8.40667 19.6177 7.876C19.8374 7.34533 20.1595 6.86313 20.5655 6.45696C20.9716 6.05078 21.4538 5.72858 21.9844 5.50875C22.515 5.28893 23.0837 5.17578 23.6581 5.17578H24.3481C25.5066 5.17764 26.6169 5.63941 27.435 6.45961C28.2532 7.27981 28.7121 8.3913 28.7111 9.54978V12.7458L25.1161 14.8228C24.4271 15.2228 23.5691 15.2228 22.8791 14.8228H22.8801ZM33.3451 23.9998L29.4301 26.2568C28.9811 26.5168 28.7111 26.9858 28.7111 27.4948V32.2188L24.7171 29.9118H24.7071C24.2671 29.6518 23.7281 29.6518 23.2891 29.9118L23.2791 29.9018L19.2851 32.2088V27.4948C19.2851 26.9848 19.0151 26.5168 18.5651 26.2568L14.6521 23.9998L18.5671 21.7428C19.0171 21.4828 19.2861 21.0138 19.2861 20.5048V15.7898L23.2801 18.0968L23.2901 18.0868C23.7301 18.3468 24.2691 18.3468 24.7081 18.0868L24.7181 18.0968L28.7121 15.7898V20.5038C28.7121 21.0138 28.9821 21.4828 29.4321 21.7418L33.3451 23.9998Z" stroke="url(#paint1_linear_154_182)" stroke-linecap="round" stroke-linejoin="round"/>
</g>
<g id="Vector_4">
<path d="M19.2868 27.495V32.209L16.6298 33.7459V29.5219C16.6298 28.7229 16.1998 27.9939 15.5118 27.5949L11.9768 25.548L9.29984 24L7.60184 23.021C6.82377 22.573 6.14166 21.976 5.59452 21.2642C5.04738 20.5524 4.64595 19.7396 4.4132 18.8725C4.18044 18.0054 4.12093 17.1009 4.23807 16.2108C4.3552 15.3206 4.64669 14.4623 5.09584 13.685L5.36584 13.225L5.63484 12.755C6.54275 11.1866 8.0361 10.0428 9.78682 9.57476C11.5375 9.10675 13.4024 9.35283 14.9718 10.259L16.6288 11.218V14.254L13.7928 12.616C13.2946 12.3286 12.7446 12.1423 12.1743 12.0676C11.604 11.9929 11.0246 12.0314 10.4692 12.1807C9.91373 12.33 9.39316 12.5873 8.93721 12.9379C8.48125 13.2885 8.09885 13.7255 7.81184 14.224L7.47184 14.813C7.18489 15.3105 6.99886 15.8597 6.92438 16.4292C6.8499 16.9987 6.88843 17.5773 7.03778 18.1319C7.18714 18.6864 7.44437 19.2061 7.79477 19.6612C8.14516 20.1163 8.58185 20.4978 9.07984 20.784L11.9758 22.452L14.6528 24L18.5678 26.257C19.0178 26.517 19.2868 26.986 19.2868 27.495Z" stroke="black" stroke-linecap="round" stroke-linejoin="round"/>
<path d="M19.2868 27.495V32.209L16.6298 33.7459V29.5219C16.6298 28.7229 16.1998 27.9939 15.5118 27.5949L11.9768 25.548L9.29984 24L7.60184 23.021C6.82377 22.573 6.14166 21.976 5.59452 21.2642C5.04738 20.5524 4.64595 19.7396 4.4132 18.8725C4.18044 18.0054 4.12093 17.1009 4.23807 16.2108C4.3552 15.3206 4.64669 14.4623 5.09584 13.685L5.36584 13.225L5.63484 12.755C6.54275 11.1866 8.0361 10.0428 9.78682 9.57476C11.5375 9.10675 13.4024 9.35283 14.9718 10.259L16.6288 11.218V14.254L13.7928 12.616C13.2946 12.3286 12.7446 12.1423 12.1743 12.0676C11.604 11.9929 11.0246 12.0314 10.4692 12.1807C9.91373 12.33 9.39316 12.5873 8.93721 12.9379C8.48125 13.2885 8.09885 13.7255 7.81184 14.224L7.47184 14.813C7.18489 15.3105 6.99886 15.8597 6.92438 16.4292C6.8499 16.9987 6.88843 17.5773 7.03778 18.1319C7.18714 18.6864 7.44437 19.2061 7.79477 19.6612C8.14516 20.1163 8.58185 20.4978 9.07984 20.784L11.9758 22.452L14.6528 24L18.5678 26.257C19.0178 26.517 19.2868 26.986 19.2868 27.495Z" stroke="url(#paint2_linear_154_182)" stroke-linecap="round" stroke-linejoin="round"/>
</g>
<g id="Vector_5">
<path d="M15.5101 20.4149L11.9751 22.4519L9.07908 20.7839C8.58109 20.4978 8.1444 20.1163 7.794 19.6612C7.4436 19.2061 7.18637 18.6864 7.03702 18.1318C6.88767 17.5772 6.84913 16.9986 6.92361 16.4292C6.99809 15.8597 7.18413 15.3104 7.47108 14.8129L7.81108 14.2229C8.09816 13.7246 8.48063 13.2877 8.93662 12.9372C9.39261 12.5867 9.9132 12.3295 10.4686 12.1802C11.0241 12.031 11.6034 11.9927 12.1737 12.0674C12.744 12.1422 13.2939 12.3286 13.7921 12.6159L16.6281 14.2539V18.4779C16.6281 19.2769 16.1981 20.0149 15.5101 20.4149ZM36.0211 25.5479L32.4861 27.5949C32.1469 27.7897 31.8651 28.0703 31.6688 28.4086C31.4725 28.7468 31.3688 29.1308 31.3681 29.5219V38.6689C31.3686 39.566 31.1923 40.4545 30.8493 41.2834C30.5062 42.1124 30.0032 42.8656 29.3689 43.5C28.7345 44.1344 27.9814 44.6376 27.1525 44.9807C26.3236 45.3239 25.4352 45.5003 24.5381 45.4999H23.4681C21.6543 45.4989 19.9152 44.7779 18.6326 43.4954C17.3501 42.2128 16.6291 40.4737 16.6281 38.6599V36.7819L19.2851 35.2539V38.4499C19.2849 39.0244 19.398 39.5932 19.6178 40.1239C19.8375 40.6547 20.1597 41.1369 20.5659 41.5431C20.9721 41.9493 21.4543 42.2715 21.9851 42.4912C22.5158 42.711 23.0846 42.824 23.6591 42.8239H24.3481C25.5066 42.8221 26.6169 42.3603 27.435 41.5401C28.2532 40.7199 28.7121 39.6084 28.7111 38.4499V27.4949C28.7111 26.9849 28.9811 26.5169 29.4311 26.2569L33.3441 23.9999L36.0211 25.5479Z" stroke="black" stroke-linecap="round" stroke-linejoin="round"/>
<path d="M15.5101 20.4149L11.9751 22.4519L9.07908 20.7839C8.58109 20.4978 8.1444 20.1163 7.794 19.6612C7.4436 19.2061 7.18637 18.6864 7.03702 18.1318C6.88767 17.5772 6.84913 16.9986 6.92361 16.4292C6.99809 15.8597 7.18413 15.3104 7.47108 14.8129L7.81108 14.2229C8.09816 13.7246 8.48063 13.2877 8.93662 12.9372C9.39261 12.5867 9.9132 12.3295 10.4686 12.1802C11.0241 12.031 11.6034 11.9927 12.1737 12.0674C12.744 12.1422 13.2939 12.3286 13.7921 12.6159L16.6281 14.2539V18.4779C16.6281 19.2769 16.1981 20.0149 15.5101 20.4149ZM36.0211 25.5479L32.4861 27.5949C32.1469 27.7897 31.8651 28.0703 31.6688 28.4086C31.4725 28.7468 31.3688 29.1308 31.3681 29.5219V38.6689C31.3686 39.566 31.1923 40.4545 30.8493 41.2834C30.5062 42.1124 30.0032 42.8656 29.3689 43.5C28.7345 44.1344 27.9814 44.6376 27.1525 44.9807C26.3236 45.3239 25.4352 45.5003 24.5381 45.4999H23.4681C21.6543 45.4989 19.9152 44.7779 18.6326 43.4954C17.3501 42.2128 16.6291 40.4737 16.6281 38.6599V36.7819L19.2851 35.2539V38.4499C19.2849 39.0244 19.398 39.5932 19.6178 40.1239C19.8375 40.6547 20.1597 41.1369 20.5659 41.5431C20.9721 41.9493 21.4543 42.2715 21.9851 42.4912C22.5158 42.711 23.0846 42.824 23.6591 42.8239H24.3481C25.5066 42.8221 26.6169 42.3603 27.435 41.5401C28.2532 40.7199 28.7121 39.6084 28.7111 38.4499V27.4949C28.7111 26.9849 28.9811 26.5169 29.4311 26.2569L33.3441 23.9999L36.0211 25.5479Z" stroke="url(#paint3_linear_154_182)" stroke-linecap="round" stroke-linejoin="round"/>
</g>
<g id="Vector_6">
<path d="M25.1162 33.1767L28.7112 35.2537V38.4497C28.7122 39.6084 28.2531 40.72 27.4347 41.5402C26.6164 42.3605 25.5058 42.8221 24.3472 42.8237H23.6582C23.0838 42.8237 22.5151 42.7106 21.9844 42.4907C21.4538 42.2709 20.9717 41.9487 20.5656 41.5425C20.1595 41.1363 19.8374 40.6542 19.6177 40.1235C19.398 39.5928 19.285 39.0241 19.2852 38.4497V35.2537L22.8802 33.1767C23.2218 32.9852 23.607 32.8847 23.9987 32.8847C24.3903 32.8847 24.7745 32.9852 25.1162 33.1767ZM40.3952 23.0207L38.6982 23.9997L36.0212 22.4517L38.9172 20.7837C39.415 20.4962 39.8514 20.1133 40.2012 19.657C40.551 19.2007 40.8075 18.6799 40.9559 18.1244C41.1043 17.569 41.1418 16.9897 41.0661 16.4197C40.9905 15.8497 40.8033 15.3003 40.5152 14.8027L40.1752 14.2127C39.5948 13.2094 38.6399 12.4776 37.5203 12.1781C36.4006 11.8787 35.2078 12.0361 34.2042 12.6157L31.3682 14.2537L28.7112 15.7917L24.7172 18.0977L24.7072 18.0877C24.2672 18.3477 23.7282 18.3477 23.2892 18.0877L23.2792 18.0977L19.2852 15.7917V12.7457L22.8802 14.8227C23.5692 15.2227 24.4282 15.2227 25.1172 14.8227L28.7122 12.7457L31.3682 11.2177L33.0262 10.2587C34.5957 9.35267 36.4607 9.10673 38.2114 9.57493C39.9621 10.0431 41.4554 11.1872 42.3632 12.7557L42.6332 13.2257L42.9022 13.6847C43.3514 14.4622 43.643 15.3206 43.7601 16.2109C43.8773 17.1012 43.8177 18.0058 43.5849 18.8731C43.352 19.7403 42.9504 20.5531 42.4031 21.265C41.8558 21.9769 41.1734 22.5728 40.3952 23.0207Z" stroke="black" stroke-linecap="round" stroke-linejoin="round"/>
<path d="M25.1162 33.1767L28.7112 35.2537V38.4497C28.7122 39.6084 28.2531 40.72 27.4347 41.5402C26.6164 42.3605 25.5058 42.8221 24.3472 42.8237H23.6582C23.0838 42.8237 22.5151 42.7106 21.9844 42.4907C21.4538 42.2709 20.9717 41.9487 20.5656 41.5425C20.1595 41.1363 19.8374 40.6542 19.6177 40.1235C19.398 39.5928 19.285 39.0241 19.2852 38.4497V35.2537L22.8802 33.1767C23.2218 32.9852 23.607 32.8847 23.9987 32.8847C24.3903 32.8847 24.7745 32.9852 25.1162 33.1767ZM40.3952 23.0207L38.6982 23.9997L36.0212 22.4517L38.9172 20.7837C39.415 20.4962 39.8514 20.1133 40.2012 19.657C40.551 19.2007 40.8075 18.6799 40.9559 18.1244C41.1043 17.569 41.1418 16.9897 41.0661 16.4197C40.9905 15.8497 40.8033 15.3003 40.5152 14.8027L40.1752 14.2127C39.5948 13.2094 38.6399 12.4776 37.5203 12.1781C36.4006 11.8787 35.2078 12.0361 34.2042 12.6157L31.3682 14.2537L28.7112 15.7917L24.7172 18.0977L24.7072 18.0877C24.2672 18.3477 23.7282 18.3477 23.2892 18.0877L23.2792 18.0977L19.2852 15.7917V12.7457L22.8802 14.8227C23.5692 15.2227 24.4282 15.2227 25.1172 14.8227L28.7122 12.7457L31.3682 11.2177L33.0262 10.2587C34.5957 9.35267 36.4607 9.10673 38.2114 9.57493C39.9621 10.0431 41.4554 11.1872 42.3632 12.7557L42.6332 13.2257L42.9022 13.6847C43.3514 14.4622 43.643 15.3206 43.7601 16.2109C43.8773 17.1012 43.8177 18.0058 43.5849 18.8731C43.352 19.7403 42.9504 20.5531 42.4031 21.265C41.8558 21.9769 41.1734 22.5728 40.3952 23.0207Z" stroke="url(#paint4_linear_154_182)" stroke-linecap="round" stroke-linejoin="round"/>
</g>
<g id="Vector_7">
<path d="M29.4301 21.743L33.3451 24L29.4301 26.257C28.9811 26.517 28.7111 26.986 28.7111 27.495V32.219L24.7171 29.912H24.7071C24.2671 29.652 23.7281 29.652 23.2891 29.912L23.2791 29.902L19.2851 32.209V27.495C19.2851 26.985 19.0151 26.517 18.5651 26.257L14.6521 24L18.5671 21.743C19.0171 21.483 19.2861 21.014 19.2861 20.505V15.79L23.2801 18.097L23.2901 18.087C23.7301 18.347 24.2691 18.347 24.7081 18.087L24.7181 18.097L28.7121 15.79V20.504C28.7121 21.014 28.9821 21.483 29.4321 21.742M38.9181 20.785L36.0211 22.452L32.4861 20.415C32.1466 20.2181 31.8647 19.9356 31.6686 19.5957C31.4724 19.2559 31.3688 18.8705 31.3681 18.478V14.254L34.2041 12.616C35.2079 12.0365 36.4007 11.8793 37.5204 12.1789C38.6401 12.4786 39.5949 13.2106 40.1751 14.214L40.5151 14.803C40.8034 15.3006 40.9907 15.8502 41.0664 16.4203C41.1421 16.9903 41.1047 17.5697 40.9563 18.1253C40.8079 18.6809 40.5514 19.2018 40.2015 19.6582C39.8516 20.1146 39.4161 20.4975 38.9181 20.785ZM16.6281 14.254V18.478C16.6281 19.277 16.1981 20.015 15.5101 20.415L11.9751 22.452L9.07908 20.784C8.58109 20.4979 8.1444 20.1164 7.794 19.6613C7.4436 19.2062 7.18637 18.6865 7.03702 18.132C6.88767 17.5774 6.84913 16.9988 6.92361 16.4293C6.99809 15.8598 7.18413 15.3106 7.47108 14.813L7.81108 14.223C8.09816 13.7247 8.48063 13.2878 8.93662 12.9373C9.39261 12.5868 9.9132 12.3296 10.4686 12.1804C11.0241 12.0311 11.6034 11.9928 12.1737 12.0675C12.744 12.1423 13.2939 12.3287 13.7921 12.616L16.6281 14.254ZM28.7111 35.254V38.45C28.7121 39.6087 28.253 40.7203 27.4347 41.5406C26.6163 42.3608 25.5057 42.8225 24.3471 42.824H23.6581C23.0837 42.824 22.515 42.7109 21.9844 42.4911C21.4538 42.2712 20.9716 41.949 20.5655 41.5429C20.1595 41.1367 19.8374 40.6545 19.6177 40.1238C19.398 39.5932 19.2849 39.0244 19.2851 38.45V35.254L22.8801 33.177C23.2218 32.9856 23.6069 32.885 23.9986 32.885C24.3903 32.885 24.7754 32.9856 25.1171 33.177L28.7111 35.254Z" stroke="black" stroke-linecap="round" stroke-linejoin="round"/>
<path d="M29.4301 21.743L33.3451 24L29.4301 26.257C28.9811 26.517 28.7111 26.986 28.7111 27.495V32.219L24.7171 29.912H24.7071C24.2671 29.652 23.7281 29.652 23.2891 29.912L23.2791 29.902L19.2851 32.209V27.495C19.2851 26.985 19.0151 26.517 18.5651 26.257L14.6521 24L18.5671 21.743C19.0171 21.483 19.2861 21.014 19.2861 20.505V15.79L23.2801 18.097L23.2901 18.087C23.7301 18.347 24.2691 18.347 24.7081 18.087L24.7181 18.097L28.7121 15.79V20.504C28.7121 21.014 28.9821 21.483 29.4321 21.742M38.9181 20.785L36.0211 22.452L32.4861 20.415C32.1466 20.2181 31.8647 19.9356 31.6686 19.5957C31.4724 19.2559 31.3688 18.8705 31.3681 18.478V14.254L34.2041 12.616C35.2079 12.0365 36.4007 11.8793 37.5204 12.1789C38.6401 12.4786 39.5949 13.2106 40.1751 14.214L40.5151 14.803C40.8034 15.3006 40.9907 15.8502 41.0664 16.4203C41.1421 16.9903 41.1047 17.5697 40.9563 18.1253C40.8079 18.6809 40.5514 19.2018 40.2015 19.6582C39.8516 20.1146 39.4161 20.4975 38.9181 20.785ZM16.6281 14.254V18.478C16.6281 19.277 16.1981 20.015 15.5101 20.415L11.9751 22.452L9.07908 20.784C8.58109 20.4979 8.1444 20.1164 7.794 19.6613C7.4436 19.2062 7.18637 18.6865 7.03702 18.132C6.88767 17.5774 6.84913 16.9988 6.92361 16.4293C6.99809 15.8598 7.18413 15.3106 7.47108 14.813L7.81108 14.223C8.09816 13.7247 8.48063 13.2878 8.93662 12.9373C9.39261 12.5868 9.9132 12.3296 10.4686 12.1804C11.0241 12.0311 11.6034 11.9928 12.1737 12.0675C12.744 12.1423 13.2939 12.3287 13.7921 12.616L16.6281 14.254ZM28.7111 35.254V38.45C28.7121 39.6087 28.253 40.7203 27.4347 41.5406C26.6163 42.3608 25.5057 42.8225 24.3471 42.824H23.6581C23.0837 42.824 22.515 42.7109 21.9844 42.4911C21.4538 42.2712 20.9716 41.949 20.5655 41.5429C20.1595 41.1367 19.8374 40.6545 19.6177 40.1238C19.398 39.5932 19.2849 39.0244 19.2851 38.45V35.254L22.8801 33.177C23.2218 32.9856 23.6069 32.885 23.9986 32.885C24.3903 32.885 24.7754 32.9856 25.1171 33.177L28.7111 35.254Z" stroke="url(#paint5_linear_154_182)" stroke-linecap="round" stroke-linejoin="round"/>
</g>
<g id="Vector_8">
<path d="M42.9058 34.3159L42.6358 34.7749L42.3658 35.2449C41.4579 36.8133 39.9646 37.9571 38.2139 38.4251C36.4631 38.8931 34.5982 38.647 33.0288 37.7409L31.3718 36.7819V33.7459L34.2078 35.3839C35.2108 35.9627 36.4022 36.1206 37.5213 35.8229C38.6403 35.5253 39.5959 34.7965 40.1788 33.7959L40.5188 33.1969C40.807 32.6994 40.9942 32.1499 41.0698 31.5799C41.1454 31.01 41.108 30.4307 40.9596 29.8752C40.8112 29.3197 40.5547 28.7989 40.2049 28.3426C39.8551 27.8863 39.4187 27.5035 38.9208 27.2159L36.0248 25.5479L33.3488 23.9999L29.4338 21.7429C29.2155 21.6183 29.034 21.4381 28.9077 21.2207C28.7815 21.0033 28.7149 20.7563 28.7148 20.5049V15.7899L31.3718 14.2529V18.4769C31.3718 19.2759 31.8018 20.0139 32.4898 20.4139L36.0248 22.4509L38.7018 23.9999L40.3998 24.9789C41.178 25.4268 41.8602 26.0237 42.4074 26.7355C42.9547 27.4473 43.3562 28.26 43.5891 29.1271C43.8219 29.9943 43.8815 30.8988 43.7644 31.789C43.6474 32.6791 43.356 33.5375 42.9068 34.3149L42.9058 34.3159Z" stroke="black" stroke-linecap="round" stroke-linejoin="round"/>
<path d="M42.9058 34.3159L42.6358 34.7749L42.3658 35.2449C41.4579 36.8133 39.9646 37.9571 38.2139 38.4251C36.4631 38.8931 34.5982 38.647 33.0288 37.7409L31.3718 36.7819V33.7459L34.2078 35.3839C35.2108 35.9627 36.4022 36.1206 37.5213 35.8229C38.6403 35.5253 39.5959 34.7965 40.1788 33.7959L40.5188 33.1969C40.807 32.6994 40.9942 32.1499 41.0698 31.5799C41.1454 31.01 41.108 30.4307 40.9596 29.8752C40.8112 29.3197 40.5547 28.7989 40.2049 28.3426C39.8551 27.8863 39.4187 27.5035 38.9208 27.2159L36.0248 25.5479L33.3488 23.9999L29.4338 21.7429C29.2155 21.6183 29.034 21.4381 28.9077 21.2207C28.7815 21.0033 28.7149 20.7563 28.7148 20.5049V15.7899L31.3718 14.2529V18.4769C31.3718 19.2759 31.8018 20.0139 32.4898 20.4139L36.0248 22.4509L38.7018 23.9999L40.3998 24.9789C41.178 25.4268 41.8602 26.0237 42.4074 26.7355C42.9547 27.4473 43.3562 28.26 43.5891 29.1271C43.8219 29.9943 43.8815 30.8988 43.7644 31.789C43.6474 32.6791 43.356 33.5375 42.9068 34.3149L42.9058 34.3159Z" stroke="url(#paint6_linear_154_182)" stroke-linecap="round" stroke-linejoin="round"/>
</g>
<g id="Vector_9">
<path d="M33.3453 24L29.4303 26.257C28.9813 26.517 28.7113 26.986 28.7113 27.495V32.219L24.7173 29.912H24.7073C24.2673 29.652 23.7283 29.652 23.2893 29.912L23.2793 29.902L19.2853 32.209V27.495C19.2853 26.985 19.0153 26.517 18.5653 26.257L14.6523 24L18.5673 21.743C19.0173 21.483 19.2863 21.014 19.2863 20.505V15.79L23.2803 18.097L23.2903 18.087C23.7303 18.347 24.2693 18.347 24.7083 18.087L24.7183 18.097L28.7123 15.79V20.504C28.7123 21.014 28.9823 21.483 29.4323 21.742L33.3453 24ZM38.9183 20.785L36.0213 22.452L32.4863 20.415C32.1469 20.2181 31.865 19.9356 31.6688 19.5957C31.4727 19.2559 31.3691 18.8705 31.3683 18.478V14.254L34.2043 12.616C35.2081 12.0365 36.401 11.8793 37.5207 12.1789C38.6403 12.4786 39.5952 13.2106 40.1753 14.214L40.5153 14.803C40.8036 15.3006 40.991 15.8502 41.0667 16.4203C41.1424 16.9903 41.105 17.5697 40.9566 18.1253C40.8081 18.6809 40.5516 19.2018 40.2017 19.6582C39.8518 20.1146 39.4164 20.4975 38.9183 20.785Z" stroke="black" stroke-linecap="round" stroke-linejoin="round"/>
<path d="M33.3453 24L29.4303 26.257C28.9813 26.517 28.7113 26.986 28.7113 27.495V32.219L24.7173 29.912H24.7073C24.2673 29.652 23.7283 29.652 23.2893 29.912L23.2793 29.902L19.2853 32.209V27.495C19.2853 26.985 19.0153 26.517 18.5653 26.257L14.6523 24L18.5673 21.743C19.0173 21.483 19.2863 21.014 19.2863 20.505V15.79L23.2803 18.097L23.2903 18.087C23.7303 18.347 24.2693 18.347 24.7083 18.087L24.7183 18.097L28.7123 15.79V20.504C28.7123 21.014 28.9823 21.483 29.4323 21.742L33.3453 24ZM38.9183 20.785L36.0213 22.452L32.4863 20.415C32.1469 20.2181 31.865 19.9356 31.6688 19.5957C31.4727 19.2559 31.3691 18.8705 31.3683 18.478V14.254L34.2043 12.616C35.2081 12.0365 36.401 11.8793 37.5207 12.1789C38.6403 12.4786 39.5952 13.2106 40.1753 14.214L40.5153 14.803C40.8036 15.3006 40.991 15.8502 41.0667 16.4203C41.1424 16.9903 41.105 17.5697 40.9566 18.1253C40.8081 18.6809 40.5516 19.2018 40.2017 19.6582C39.8518 20.1146 39.4164 20.4975 38.9183 20.785Z" stroke="url(#paint7_linear_154_182)" stroke-linecap="round" stroke-linejoin="round"/>
</g>
<path id="Vector_10" d="M24.25 24C24.25 24.1381 24.1381 24.25 24 24.25C23.8619 24.25 23.75 24.1381 23.75 24C23.75 23.8619 23.8619 23.75 24 23.75C24.1381 23.75 24.25 23.8619 24.25 24Z" fill="black" stroke="url(#paint8_linear_154_182)"/>
</g>
<defs>
<linearGradient id="paint0_linear_154_182" x1="2.06774" y1="44.8909" x2="46.8588" y2="43.7868" gradientUnits="userSpaceOnUse">
<stop stop-color="#E48E3E"/>
<stop offset="0.417796" stop-color="#B14BF4"/>
<stop offset="1" stop-color="#4D91FF"/>
</linearGradient>
<linearGradient id="paint1_linear_154_182" x1="4.22906" y1="41.2795" x2="60.5532" y2="39.2281" gradientUnits="userSpaceOnUse">
<stop stop-color="#E48E3E"/>
<stop offset="0.417796" stop-color="#B14BF4"/>
<stop offset="1" stop-color="#4D91FF"/>
</linearGradient>
<linearGradient id="paint2_linear_154_182" x1="3.00632" y1="37.9534" x2="27.8965" y2="37.4483" gradientUnits="userSpaceOnUse">
<stop stop-color="#E48E3E"/>
<stop offset="0.417796" stop-color="#B14BF4"/>
<stop offset="1" stop-color="#4D91FF"/>
</linearGradient>
<linearGradient id="paint3_linear_154_182" x1="4.62386" y1="51.2705" x2="52.6056" y2="49.9015" gradientUnits="userSpaceOnUse">
<stop stop-color="#E48E3E"/>
<stop offset="0.417796" stop-color="#B14BF4"/>
<stop offset="1" stop-color="#4D91FF"/>
</linearGradient>
<linearGradient id="paint4_linear_154_182" x1="17.3797" y1="48.5963" x2="57.7935" y2="47.6256" gradientUnits="userSpaceOnUse">
<stop stop-color="#E48E3E"/>
<stop offset="0.417796" stop-color="#B14BF4"/>
<stop offset="1" stop-color="#4D91FF"/>
</linearGradient>
<linearGradient id="paint5_linear_154_182" x1="4.22903" y1="48.1333" x2="60.5539" y2="46.0818" gradientUnits="userSpaceOnUse">
<stop stop-color="#E48E3E"/>
<stop offset="0.417796" stop-color="#B14BF4"/>
<stop offset="1" stop-color="#4D91FF"/>
</linearGradient>
<linearGradient id="paint6_linear_154_182" x1="27.5414" y1="42.8647" x2="52.4328" y2="42.3596" gradientUnits="userSpaceOnUse">
<stop stop-color="#E48E3E"/>
<stop offset="0.417796" stop-color="#B14BF4"/>
<stop offset="1" stop-color="#4D91FF"/>
</linearGradient>
<linearGradient id="paint7_linear_154_182" x1="12.5978" y1="35.6999" x2="56.1178" y2="33.8308" gradientUnits="userSpaceOnUse">
<stop stop-color="#E48E3E"/>
<stop offset="0.417796" stop-color="#B14BF4"/>
<stop offset="1" stop-color="#4D91FF"/>
</linearGradient>
<linearGradient id="paint8_linear_154_182" x1="23.1335" y1="25.0086" x2="25.6032" y2="24.9277" gradientUnits="userSpaceOnUse">
<stop stop-color="#E48E3E"/>
<stop offset="0.417796" stop-color="#B14BF4"/>
<stop offset="1" stop-color="#4D91FF"/>
</linearGradient>
</defs>
</svg>
