<svg width="48" height="48" viewBox="0 0 48 48" fill="none" xmlns="http://www.w3.org/2000/svg">
<g id="streamline:ai-technology-spark" clip-path="url(#clip0_154_199)">
<g id="Group">
<path id="Vector" d="M28.8213 27.3258C27.4978 28.8343 25.8864 30.0686 24.0727 30.9635V36.1063C24.0727 36.561 23.8921 36.997 23.5706 37.3185C23.2491 37.64 22.8131 37.8206 22.3584 37.8206H12.0727C11.618 37.8206 11.182 37.64 10.8605 37.3185C10.539 36.997 10.3584 36.561 10.3584 36.1063V30.9635C6.74588 29.1603 3.98415 26.0128 2.66587 22.1965C1.34759 18.3803 1.57782 14.1993 3.30715 10.5508C5.03648 6.90236 8.1271 4.07717 11.9158 2.68152C15.7044 1.28588 19.8892 1.431 23.5721 3.08575M10.3584 46.2858H24.0727" stroke="url(#paint0_linear_154_199)" stroke-width="2" stroke-linecap="round" stroke-linejoin="round"/>
<g id="Vector_2">
<path d="M25.3557 13.4884C24.1523 13.2793 24.1523 11.5513 25.3557 11.3421C27.4865 10.9713 29.4586 9.97427 31.0206 8.47825C32.5825 6.98223 33.6636 5.05495 34.126 2.94212L34.198 2.60612C34.4586 1.4164 36.1523 1.40954 36.4231 2.59583L36.5123 2.98326C36.9924 5.08652 38.0833 7.00104 39.6479 8.48637C41.2126 9.9717 43.1812 10.9616 45.3066 11.3318C46.5168 11.5444 46.5168 13.2793 45.3066 13.4918C43.1818 13.8626 41.2139 14.8529 39.65 16.3381C38.086 17.8234 36.9956 19.7376 36.5157 21.8404L36.4266 22.2278C36.1557 23.4141 34.462 23.4073 34.2014 22.2175L34.1328 21.885C33.67 19.7712 32.5879 17.8433 31.0246 16.3471C29.4613 14.851 27.4877 13.858 25.3557 13.4884Z" stroke="black" stroke-width="2" stroke-linecap="round" stroke-linejoin="round"/>
<path d="M25.3557 13.4884C24.1523 13.2793 24.1523 11.5513 25.3557 11.3421C27.4865 10.9713 29.4586 9.97427 31.0206 8.47825C32.5825 6.98223 33.6636 5.05495 34.126 2.94212L34.198 2.60612C34.4586 1.4164 36.1523 1.40954 36.4231 2.59583L36.5123 2.98326C36.9924 5.08652 38.0833 7.00104 39.6479 8.48637C41.2126 9.9717 43.1812 10.9616 45.3066 11.3318C46.5168 11.5444 46.5168 13.2793 45.3066 13.4918C43.1818 13.8626 41.2139 14.8529 39.65 16.3381C38.086 17.8234 36.9956 19.7376 36.5157 21.8404L36.4266 22.2278C36.1557 23.4141 34.462 23.4073 34.2014 22.2175L34.1328 21.885C33.67 19.7712 32.5879 17.8433 31.0246 16.3471C29.4613 14.851 27.4877 13.858 25.3557 13.4884Z" stroke="url(#paint1_linear_154_199)" stroke-width="2" stroke-linecap="round" stroke-linejoin="round"/>
</g>
</g>
</g>
<defs>
<linearGradient id="paint0_linear_154_199" x1="-0.276849" y1="53.9677" x2="44.21" y2="53.084" gradientUnits="userSpaceOnUse">
<stop stop-color="#E48E3E"/>
<stop offset="0.417796" stop-color="#B14BF4"/>
<stop offset="1" stop-color="#4D91FF"/>
</linearGradient>
<linearGradient id="paint1_linear_154_199" x1="22.7629" y1="26.804" x2="58.591" y2="25.61" gradientUnits="userSpaceOnUse">
<stop stop-color="#E48E3E"/>
<stop offset="0.417796" stop-color="#B14BF4"/>
<stop offset="1" stop-color="#4D91FF"/>
</linearGradient>
<clipPath id="clip0_154_199">
<rect width="48" height="48" fill="white"/>
</clipPath>
</defs>
</svg>
