<svg width="16" height="17" viewBox="0 0 16 17" fill="none" xmlns="http://www.w3.org/2000/svg">
<mask id="mask0_161_570" style="mask-type:luminance" maskUnits="userSpaceOnUse" x="1" y="1" width="14" height="15">
<path fill-rule="evenodd" clip-rule="evenodd" d="M1.33203 1.73828H14.6653V15.0716H1.33203V1.73828Z" fill="white"/>
</mask>
<g mask="url(#mask0_161_570)">
<path fill-rule="evenodd" clip-rule="evenodd" d="M5.10803 2.73828C3.42203 2.73828 2.33203 3.89361 2.33203 5.68228V11.1276C2.33203 12.9163 3.42203 14.0716 5.10803 14.0716H10.8867C12.5747 14.0716 13.6654 12.9163 13.6654 11.1276V5.68228C13.6654 3.89361 12.5747 2.73828 10.888 2.73828H5.10803ZM10.8867 15.0716H5.10803C2.84936 15.0716 1.33203 13.4863 1.33203 11.1276V5.68228C1.33203 3.32361 2.84936 1.73828 5.10803 1.73828H10.888C13.1474 1.73828 14.6654 3.32361 14.6654 5.68228V11.1276C14.6654 13.4863 13.1474 15.0716 10.8867 15.0716Z" fill="#AA61E9"/>
</g>
<path fill-rule="evenodd" clip-rule="evenodd" d="M7.99609 11.5719C7.72009 11.5719 7.49609 11.3479 7.49609 11.0719V8.40527C7.49609 8.12927 7.72009 7.90527 7.99609 7.90527C8.27209 7.90527 8.49609 8.12927 8.49609 8.40527V11.0719C8.49609 11.3479 8.27209 11.5719 7.99609 11.5719Z" fill="#AA61E9"/>
<path fill-rule="evenodd" clip-rule="evenodd" d="M7.99812 6.54134C7.62946 6.54134 7.32812 6.24334 7.32812 5.87467C7.32812 5.50601 7.62346 5.20801 7.99146 5.20801H7.99812C8.36679 5.20801 8.66479 5.50601 8.66479 5.87467C8.66479 6.24334 8.36679 6.54134 7.99812 6.54134Z" fill="#AA61E9"/>
</svg>
