<svg width="24" height="25" viewBox="0 0 24 25" fill="none" xmlns="http://www.w3.org/2000/svg">
<circle cx="12" cy="12.4053" r="12" fill="url(#paint0_linear_161_565)"/>
<path d="M11.8576 16.4053C11.111 16.4053 10.4473 16.2392 9.8666 15.907C9.28588 15.5658 8.8296 15.0944 8.49776 14.4928C8.16592 13.8912 8 13.1909 8 12.3918C8 11.6017 8.15461 10.9103 8.46382 10.3177C8.78058 9.71616 9.21423 9.24927 9.76478 8.91706C10.3229 8.57587 10.9602 8.40527 11.6766 8.40527C12.3931 8.40527 13.0115 8.59832 13.5319 8.9844C14.0598 9.3615 14.4671 9.89573 14.7537 10.5871C15.0403 11.2784 15.1836 12.091 15.1836 13.0248H9.1539V11.6915H14.4482L13.7129 12.1898C13.6903 11.687 13.5885 11.256 13.4075 10.8969C13.234 10.5377 12.9965 10.2639 12.6948 10.0753C12.4006 9.87778 12.05 9.77901 11.6427 9.77901C11.2128 9.77901 10.8357 9.88227 10.5114 10.0888C10.1947 10.2953 9.94579 10.5871 9.76478 10.9642C9.58378 11.3323 9.49328 11.7723 9.49328 12.2841C9.49328 12.8497 9.59886 13.3391 9.81003 13.7521C10.0287 14.1651 10.3342 14.4838 10.7264 14.7083C11.1261 14.9238 11.5974 15.0315 12.1405 15.0315C12.6307 15.0315 13.1322 14.9417 13.645 14.7622C14.1579 14.5736 14.6104 14.3132 15.0026 13.981V15.247C14.6104 15.6062 14.1315 15.889 13.5659 16.0955C13.0078 16.302 12.4384 16.4053 11.8576 16.4053Z" fill="#232323"/>
<path d="M17.0724 16.3245C16.8989 16.3245 16.7405 16.2751 16.5972 16.1763C16.4615 16.0776 16.3521 15.9474 16.2692 15.7857C16.1862 15.6151 16.1447 15.4266 16.1447 15.2201C16.1447 15.0136 16.1862 14.8295 16.2692 14.6679C16.3521 14.4973 16.4615 14.3626 16.5972 14.2639C16.7405 14.1651 16.8989 14.1157 17.0724 14.1157C17.2458 14.1157 17.4004 14.1651 17.5362 14.2639C17.6795 14.3626 17.7926 14.4973 17.8756 14.6679C17.9585 14.8295 18 15.0136 18 15.2201C18 15.4266 17.9585 15.6151 17.8756 15.7857C17.7926 15.9474 17.6795 16.0776 17.5362 16.1763C17.4004 16.2751 17.2458 16.3245 17.0724 16.3245Z" fill="#232323"/>
<defs>
<linearGradient id="paint0_linear_161_565" x1="12" y1="0.405273" x2="12" y2="24.4053" gradientUnits="userSpaceOnUse">
<stop offset="0.187286" stop-color="#D09600"/>
<stop offset="1" stop-color="#FBFF23"/>
</linearGradient>
</defs>
</svg>
