<svg width="113" height="19" viewBox="0 0 113 19" fill="none" xmlns="http://www.w3.org/2000/svg">
<path d="M0 18.6718V0H12.5071V2.00576H2.50952V8.31478H11.8595V10.3205H2.50952V16.666H12.669V18.6718H0Z" fill="white"/>
<path d="M17.242 10.2476V18.6718H14.8539V4.66795H17.161V6.85605H17.3634C17.7277 6.14491 18.2809 5.57358 19.0229 5.14204C19.765 4.70441 20.7229 4.48561 21.8967 4.48561C22.9491 4.48561 23.8699 4.6801 24.6592 5.0691C25.4485 5.45202 26.0624 6.03551 26.5009 6.81958C26.9394 7.59757 27.1586 8.58221 27.1586 9.77351V18.6718H24.7705V9.91939C24.7705 8.81926 24.4535 7.96225 23.8194 7.34837C23.1852 6.72841 22.315 6.41843 21.2086 6.41843C20.4463 6.41843 19.765 6.56734 19.1646 6.86516C18.5709 7.16299 18.1021 7.59757 17.7581 8.16891C17.414 8.74024 17.242 9.43314 17.242 10.2476Z" fill="white"/>
<path d="M32.0579 10.2476V18.6718H29.6698V0H32.0579V6.85605H32.2603C32.6246 6.13276 33.171 5.55838 33.8996 5.13292C34.6349 4.70138 35.6131 4.48561 36.8341 4.48561C37.8932 4.48561 38.8208 4.67706 39.6168 5.05998C40.4129 5.43682 41.0301 6.01727 41.4686 6.80134C41.9139 7.57933 42.1365 8.57006 42.1365 9.77351V18.6718H39.7484V9.91939C39.7484 8.8071 39.428 7.94706 38.7871 7.33925C38.153 6.72537 37.2726 6.41843 36.146 6.41843C35.3635 6.41843 34.6619 6.56734 34.0413 6.86516C33.4274 7.16299 32.9417 7.59757 32.5841 8.16891C32.2333 8.74024 32.0579 9.43314 32.0579 10.2476Z" fill="white"/>
<path d="M49.2265 19C48.2416 19 47.3478 18.8329 46.545 18.4986C45.7422 18.1582 45.1047 17.6689 44.6325 17.0307C44.1603 16.3864 43.9242 15.6084 43.9242 14.6967C43.9242 13.8944 44.0996 13.2441 44.4504 12.7457C44.8011 12.2412 45.27 11.8461 45.8569 11.5605C46.4438 11.2748 47.0914 11.0621 47.7998 10.9223C48.5148 10.7764 49.2333 10.6609 49.9551 10.5758C50.8996 10.4664 51.6652 10.3844 52.2521 10.3297C52.8458 10.2689 53.2775 10.1686 53.5474 10.0288C53.824 9.889 53.9622 9.64587 53.9622 9.29942V9.22649C53.9622 8.32694 53.689 7.62796 53.1426 7.12956C52.6029 6.63116 51.7833 6.38196 50.6837 6.38196C49.5436 6.38196 48.6497 6.60685 48.0021 7.05662C47.3545 7.5064 46.8992 7.98656 46.6361 8.49712L44.3694 7.76775C44.7742 6.91683 45.3138 6.25432 45.9884 5.78023C46.6698 5.30006 47.4119 4.96577 48.2146 4.77735C49.0242 4.58285 49.8202 4.48561 50.6027 4.48561C51.1019 4.48561 51.6753 4.54031 52.323 4.64971C52.9773 4.75304 53.6081 4.96881 54.2152 5.29702C54.8291 5.62524 55.3384 6.1206 55.7432 6.78311C56.148 7.44562 56.3503 8.33301 56.3503 9.4453V18.6718H53.9622V16.7754H53.8408C53.6789 17.0793 53.4091 17.4045 53.0313 17.751C52.6535 18.0974 52.1509 18.3922 51.5236 18.6353C50.8962 18.8784 50.1305 19 49.2265 19ZM49.5908 17.0672C50.5353 17.0672 51.3313 16.9 51.9789 16.5657C52.6333 16.2314 53.1257 15.7999 53.4563 15.2711C53.7936 14.7423 53.9622 14.1862 53.9622 13.6027V11.6334C53.8611 11.7428 53.6384 11.8431 53.2944 11.9343C52.9571 12.0194 52.5658 12.0953 52.1206 12.1622C51.6821 12.223 51.2537 12.2777 50.8355 12.3263C50.424 12.3688 50.09 12.4053 49.8337 12.4357C49.213 12.5086 48.6329 12.6272 48.0932 12.7913C47.5603 12.9493 47.1285 13.1894 46.798 13.5115C46.4742 13.8276 46.3123 14.2591 46.3123 14.8061C46.3123 15.5537 46.6192 16.119 47.2331 16.5019C47.8537 16.8788 48.6396 17.0672 49.5908 17.0672Z" fill="white"/>
<path d="M61.2446 10.2476V18.6718H58.8565V4.66795H61.1636V6.85605H61.366C61.7303 6.14491 62.2835 5.57358 63.0255 5.14204C63.7676 4.70441 64.7255 4.48561 65.8993 4.48561C66.9517 4.48561 67.8725 4.6801 68.6618 5.0691C69.4511 5.45202 70.065 6.03551 70.5035 6.81958C70.942 7.59757 71.1612 8.58221 71.1612 9.77351V18.6718H68.7731V9.91939C68.7731 8.81926 68.4561 7.96225 67.8219 7.34837C67.1878 6.72841 66.3176 6.41843 65.2112 6.41843C64.4489 6.41843 63.7676 6.56734 63.1672 6.86516C62.5735 7.16299 62.1047 7.59757 61.7606 8.16891C61.4166 8.74024 61.2446 9.43314 61.2446 10.2476Z" fill="white"/>
<path d="M79.9867 18.9635C78.5295 18.9635 77.2748 18.6536 76.2224 18.0336C75.17 17.4136 74.3605 16.5597 73.7938 15.4717C73.2272 14.3837 72.9438 13.1408 72.9438 11.7428C72.9438 10.3205 73.2339 9.06542 73.8141 7.97745C74.401 6.8834 75.2172 6.02943 76.2629 5.41555C77.3153 4.79559 78.543 4.48561 79.9462 4.48561C81.0391 4.48561 82.024 4.66795 82.901 5.03263C83.778 5.39731 84.4964 5.90787 85.0563 6.5643C85.6162 7.22073 85.9637 7.98656 86.0986 8.8618H83.7105C83.5284 8.22361 83.1236 7.65835 82.4962 7.16603C81.8756 6.66763 81.0391 6.41843 79.9867 6.41843C79.0557 6.41843 78.2395 6.63724 77.5379 7.07486C76.843 7.5064 76.3 8.11724 75.9087 8.90739C75.5242 9.69146 75.3319 10.6123 75.3319 11.6699C75.3319 12.7518 75.5208 13.6939 75.8986 14.4962C76.2831 15.2985 76.8228 15.9215 77.5176 16.3652C78.2192 16.8089 79.0422 17.0307 79.9867 17.0307C80.6073 17.0307 81.1706 16.9335 81.6766 16.739C82.1825 16.5445 82.6109 16.2649 82.9617 15.9002C83.3125 15.5355 83.5621 15.0979 83.7105 14.5873H86.0986C85.9637 15.4139 85.6297 16.1585 85.0968 16.821C84.5706 17.4774 83.8724 18.0002 83.0022 18.3892C82.1387 18.7721 81.1335 18.9635 79.9867 18.9635Z" fill="white"/>
<path d="M94.2537 18.9635C92.7561 18.9635 91.4642 18.6657 90.3781 18.0701C89.2987 17.4683 88.4656 16.6296 87.8787 15.5537C87.2985 14.4718 87.0084 13.2137 87.0084 11.7793C87.0084 10.3448 87.2985 9.08061 87.8787 7.98656C88.4656 6.88644 89.2819 6.02943 90.3275 5.41555C91.3799 4.79559 92.6076 4.48561 94.0108 4.48561C94.8203 4.48561 95.6197 4.60717 96.409 4.85029C97.1983 5.09341 97.9168 5.48848 98.5644 6.03551C99.212 6.57646 99.7281 7.29367 100.113 8.18714C100.497 9.08061 100.689 10.1807 100.689 11.4875V12.3992H88.7084V10.5393H98.2608C98.2608 9.7492 98.0854 9.04415 97.7346 8.42418C97.3906 7.80422 96.8981 7.31494 96.2572 6.95633C95.6231 6.59773 94.8743 6.41843 94.0108 6.41843C93.0596 6.41843 92.2366 6.63116 91.5418 7.05662C90.8537 7.47601 90.3241 8.02303 89.9531 8.6977C89.5821 9.37236 89.3965 10.0956 89.3965 10.8676V12.1075C89.3965 13.1651 89.5989 14.0616 90.0037 14.797C90.4152 15.5264 90.9852 16.0825 91.7138 16.4655C92.4424 16.8423 93.289 17.0307 94.2537 17.0307C94.8811 17.0307 95.4477 16.9517 95.9537 16.7937C96.4664 16.6296 96.9082 16.3864 97.2793 16.0643C97.6503 15.7361 97.937 15.3289 98.1394 14.8426L100.447 15.4261C100.204 16.1312 99.7955 16.7511 99.2221 17.286C98.6487 17.8148 97.9404 18.2281 97.0971 18.5259C96.2539 18.8177 95.3061 18.9635 94.2537 18.9635Z" fill="white"/>
<path d="M102.469 18.6718V4.66795H104.777V6.78311H104.939C105.222 6.09021 105.735 5.52799 106.477 5.09645C107.219 4.66491 108.055 4.44914 108.986 4.44914C109.162 4.44914 109.381 4.45218 109.644 4.45825C109.907 4.46433 110.106 4.47345 110.241 4.48561V6.6737C110.16 6.65547 109.974 6.62812 109.684 6.59165C109.401 6.5491 109.101 6.52783 108.784 6.52783C108.028 6.52783 107.354 6.67067 106.76 6.95633C106.173 7.23592 105.708 7.62492 105.364 8.12332C105.026 8.61564 104.858 9.17786 104.858 9.80998V18.6718H102.469Z" fill="white"/>
<path d="M111.179 18.8177C110.679 18.8177 110.251 18.6566 109.893 18.3345C109.536 18.0123 109.357 17.6264 109.357 17.1766C109.357 16.7268 109.536 16.3409 109.893 16.0187C110.251 15.6966 110.679 15.5355 111.179 15.5355C111.678 15.5355 112.106 15.6966 112.464 16.0187C112.821 16.3409 113 16.7268 113 17.1766C113 17.4744 112.916 17.7479 112.747 17.9971C112.585 18.2463 112.366 18.4469 112.089 18.5988C111.819 18.7447 111.516 18.8177 111.179 18.8177Z" fill="white"/>
</svg>
